<svg xmlns="http://www.w3.org/2000/svg" width="500" height="500" style="width:100%;height:100%;transform:translate3d(0,0,0);content-visibility:visible" viewBox="0 0 500 500"><defs><clipPath id="c"><path d="M0 0h500v500H0z"/></clipPath><clipPath id="f"><path d="M0 0h500v500H0z"/></clipPath><clipPath id="d"><path d="M0 0h500v500H0z"/></clipPath><filter id="a" width="100%" height="100%" x="0%" y="0%" filterUnits="objectBoundingBox"><feComponentTransfer in="SourceGraphic"><feFuncA tableValues="1.0 0.0" type="table"/></feComponentTransfer></filter><mask id="e" mask-type="alpha"><g filter="url(#a)"><path fill="#fff" d="M0 0h500v500H0z" opacity="0"/><use xmlns:ns1="http://www.w3.org/1999/xlink" ns1:href="#b"/></g></mask><g id="b" class="primary design" style="display:none"><path class="primary"/><path fill-opacity="0" class="primary"/></g></defs><g clip-path="url(#c)"><g clip-path="url(#d)" style="display:block"><g class="primary design" style="display:block"><path fill="#121331" d="M377.338 62.5H229.213c-11.458 0-20.833 9.375-20.833 20.833 0 11.458 9.375 20.834 20.833 20.834h148.125c10.208 0 18.542 8.749 18.542 19.583v252.5c0 10.834-8.334 19.583-18.542 19.583H229.213c-11.458 0-20.833 9.376-20.833 20.834s9.375 20.833 20.833 20.833h148.125c33.126 0 60.208-27.5 60.208-61.25v-252.5c0-33.75-27.082-61.25-60.208-61.25z" class="primary"/></g><g class="primary design" style="display:block"><path fill="#121331" d="M-143.58 348.126c4.167 3.958 9.375 6.041 14.792 6.041s10.625-2.083 14.792-6.041l83.334-83.334c6.154-6.156 7.601-15.16 4.432-22.707a20.895 20.895 0 0 0-4.667-6.904l-83.099-83.098c-8.125-8.125-21.25-8.125-29.375 0s-8.125 21.251 0 29.376l47.709 47.708h-178.959c-11.458 0-20.833 9.375-20.833 20.833 0 11.458 9.375 20.833 20.833 20.833h178.959l-47.918 47.917c-8.124 8.125-8.124 21.251 0 29.376z" class="primary"/></g><g class="primary design" style="display:block"><path fill="#121331" d="M214.42 348.126c4.167 3.958 9.375 6.041 14.792 6.041s10.625-2.083 14.792-6.041l83.334-83.334c6.154-6.156 7.601-15.16 4.432-22.707a20.895 20.895 0 0 0-4.667-6.904l-83.099-83.098c-8.125-8.125-21.25-8.125-29.375 0s-8.125 21.251 0 29.376l47.709 47.708H83.379c-11.458 0-20.833 9.375-20.833 20.833 0 11.458 9.375 20.833 20.833 20.833h178.959L214.42 318.75c-8.124 8.125-8.124 21.251 0 29.376z" class="primary"/></g><g class="primary design" mask="url(#e)" style="display:none"><path class="primary"/></g></g><g clip-path="url(#f)" style="display:none"><g class="primary design" style="display:none"><path fill="none" class="primary"/></g><g class="primary design" style="display:none"><path class="primary"/></g><g class="primary design" style="display:none"><path class="primary"/></g></g></g></svg>